<?xml version="1.0" standalone="no"?>
<!DOCTYPE svg PUBLIC "-//W3C//DTD SVG 20010904//EN"
 "http://www.w3.org/TR/2001/REC-SVG-20010904/DTD/svg10.dtd">
<svg version="1.0" xmlns="http://www.w3.org/2000/svg"
 width="441.000000pt" height="441.000000pt" viewBox="0 0 441.000000 441.000000"
 preserveAspectRatio="xMidYMid meet">
<metadata>
Created by potrace 1.11, written by Peter Selinger 2001-2013
</metadata>
<g transform="translate(0.000000,441.000000) scale(0.100000,-0.100000)"
fill="#000000" stroke="none">
<path d="M1114 3890 c-12 -4 -31 -21 -43 -36 -19 -24 -21 -39 -21 -145 l0
-119 -490 0 -490 0 -32 -29 -33 -29 -3 -1309 c-2 -894 0 -1320 8 -1344 20 -71
3 -69 547 -71 l488 -3 3 -41 3 -42 -113 -6 c-62 -3 -207 -11 -323 -17 -337
-17 -556 -42 -604 -69 -65 -36 318 -74 1034 -102 405 -15 1907 -15 2310 0 411
16 630 29 805 48 281 29 313 59 95 86 l-93 12 5 55 c7 84 3 81 92 81 70 0 83
3 108 24 l28 24 3 761 2 760 -29 33 -29 33 -401 3 c-391 3 -401 3 -401 22 0
20 9 20 380 20 408 0 429 2 464 51 14 21 16 75 16 497 0 493 -1 499 -44 534
-20 16 -88 18 -1018 18 l-997 0 -28 -24 -28 -24 -3 -226 -3 -226 -40 0 -39 0
0 115 c0 113 -1 115 -29 147 -28 32 -33 33 -115 37 -47 1 -86 7 -86 11 0 4 23
88 51 186 53 187 59 227 39 264 -26 48 -49 50 -502 49 -233 0 -433 -4 -444 -9z
m814 -212 c-16 -57 -38 -133 -49 -170 l-20 -68 -349 0 -350 0 0 170 0 170 399
0 399 0 -30 -102z m-1020 -1475 l-3 -1278 -390 0 -390 0 -3 1265 c-1 696 0
1271 3 1278 3 9 92 12 395 12 l390 0 -2 -1277z m3372 1192 l0 -75 -940 0 -940
0 0 75 0 75 940 0 940 0 0 -75z m-2570 -35 l0 -60 -200 0 -200 0 0 60 0 60
200 0 200 0 0 -60z m2588 -417 l2 -343 -960 0 -960 0 0 345 0 345 958 -2 957
-3 3 -342z m-3023 57 c6 -10 -91 -120 -107 -120 -5 0 -11 7 -15 16 -4 10 11
32 43 65 48 49 67 58 79 39z m195 -7 c0 -20 -288 -313 -307 -313 -35 0 0 48
134 182 81 82 153 148 160 148 7 0 13 -8 13 -17z m200 1 c0 -22 -496 -518
-509 -510 -6 4 -11 12 -11 18 0 16 491 508 507 508 7 0 13 -7 13 -16z m200 3
c0 -18 -488 -517 -506 -517 -8 0 -14 8 -14 17 0 20 488 513 507 513 7 0 13 -6
13 -13z m380 -187 l0 -160 -70 0 -70 0 0 160 0 160 70 0 70 0 0 -160z m-380
-15 c0 -19 -288 -315 -306 -315 -36 0 -2 47 133 182 142 142 173 166 173 133z
m0 -204 c0 -19 -91 -111 -110 -111 -24 0 -7 37 37 82 50 51 73 60 73 29z m453
-75 c28 -20 39 -21 423 -24 384 -3 394 -3 394 -22 0 -20 -9 -20 -470 -20
l-470 0 0 38 c0 21 3 41 6 45 14 14 90 4 117 -17z m-243 -976 l0 -610 -418 0
c-231 0 -487 -3 -570 -7 l-152 -6 0 616 0 617 570 0 570 0 0 -610z m2200 -7
l0 -616 -152 6 c-83 4 -571 7 -1085 7 l-933 0 0 610 0 610 1085 0 1085 0 0
-617z"/>
<path d="M288 1739 c-22 -12 -23 -42 -3 -59 32 -26 81 13 59 48 -14 21 -33 25
-56 11z"/>
<path d="M490 1736 c-6 -8 -10 -25 -8 -38 4 -30 46 -38 65 -12 17 23 16 29 -3
48 -19 20 -38 20 -54 2z"/>
<path d="M690 1735 c-26 -32 13 -81 48 -59 34 22 22 74 -18 74 -10 0 -23 -7
-30 -15z"/>
<path d="M281 1526 c-7 -8 -10 -24 -6 -35 14 -45 79 -30 73 17 -2 21 -9 28
-29 30 -14 2 -31 -4 -38 -12z"/>
<path d="M484 1526 c-9 -23 -1 -48 18 -60 14 -8 22 -6 39 10 17 18 19 25 10
43 -13 24 -59 29 -67 7z"/>
<path d="M684 1513 c-5 -19 -2 -30 11 -40 11 -7 22 -13 25 -13 3 0 14 6 25 13
13 10 16 21 11 40 -5 22 -12 27 -36 27 -24 0 -31 -5 -36 -27z"/>
<path d="M280 1325 c-26 -32 13 -81 48 -59 34 22 22 74 -18 74 -10 0 -23 -7
-30 -15z"/>
<path d="M490 1326 c-6 -8 -10 -25 -8 -38 4 -30 46 -38 65 -12 17 23 16 29 -3
48 -19 20 -38 20 -54 2z"/>
<path d="M690 1325 c-26 -32 13 -81 48 -59 34 22 22 74 -18 74 -10 0 -23 -7
-30 -15z"/>
<path d="M281 1116 c-7 -8 -10 -24 -6 -35 14 -45 79 -30 73 17 -2 21 -9 28
-29 30 -14 2 -31 -4 -38 -12z"/>
<path d="M487 1123 c-14 -14 -6 -53 13 -63 15 -8 24 -6 40 10 16 16 18 25 10
40 -10 19 -49 27 -63 13z"/>
<path d="M684 1103 c-5 -19 -2 -30 11 -40 11 -7 22 -13 25 -13 3 0 14 6 25 13
13 10 16 21 11 40 -5 22 -12 27 -36 27 -24 0 -31 -5 -36 -27z"/>
<path d="M2594 3156 c-12 -31 0 -51 31 -51 27 0 30 3 30 30 0 25 -4 30 -28 33
-17 2 -29 -2 -33 -12z"/>
<path d="M2795 3151 c-9 -31 5 -52 33 -49 33 4 50 31 33 52 -18 22 -58 20 -66
-3z"/>
<path d="M3001 3152 c-14 -27 8 -55 40 -50 19 2 24 9 24 33 0 25 -4 31 -27 33
-18 2 -30 -3 -37 -16z"/>
<path d="M3204 3156 c-10 -27 1 -51 26 -54 31 -5 53 23 39 49 -12 22 -57 25
-65 5z"/>
<path d="M3409 3154 c-17 -21 0 -48 33 -52 28 -3 42 18 33 49 -8 23 -48 25
-66 3z"/>
<path d="M3614 3156 c-12 -31 0 -51 31 -51 27 0 30 3 30 30 0 25 -4 30 -28 33
-17 2 -29 -2 -33 -12z"/>
<path d="M3819 3154 c-9 -11 -10 -20 -2 -32 24 -39 82 -15 68 28 -8 24 -47 27
-66 4z"/>
<path d="M4024 3156 c-12 -31 0 -51 31 -51 27 0 30 3 30 30 0 25 -4 30 -28 33
-17 2 -29 -2 -33 -12z"/>
<path d="M4035 2777 c-10 -8 -16 -23 -13 -38 2 -19 9 -24 33 -24 25 0 31 4 33
27 4 34 -26 54 -53 35z"/>
<path d="M2594 2766 c-12 -31 0 -51 31 -51 27 0 30 3 30 30 0 25 -4 30 -28 33
-17 2 -29 -2 -33 -12z"/>
<path d="M2795 2760 c-14 -44 44 -69 65 -29 9 15 8 24 -1 35 -18 21 -57 18
-64 -6z"/>
<path d="M3001 2761 c-13 -24 8 -55 34 -50 23 5 40 32 32 53 -9 22 -54 20 -66
-3z"/>
<path d="M3203 2764 c-8 -21 9 -48 32 -53 26 -5 47 26 34 50 -12 23 -57 25
-66 3z"/>
<path d="M3411 2766 c-9 -11 -10 -20 -1 -36 21 -39 83 -7 67 34 -8 20 -50 21
-66 2z"/>
<path d="M3614 2766 c-12 -31 0 -51 31 -51 27 0 30 3 30 30 0 25 -4 30 -28 33
-17 2 -29 -2 -33 -12z"/>
<path d="M3815 2760 c-4 -12 -1 -27 5 -35 27 -33 78 -5 65 35 -4 14 -15 20
-35 20 -20 0 -31 -6 -35 -20z"/>
<path d="M1170 1519 c-10 -18 -9 -25 9 -43 27 -27 56 -12 56 30 0 24 -5 30
-27 32 -19 2 -30 -3 -38 -19z"/>
<path d="M1377 1533 c-26 -26 12 -80 47 -67 21 8 30 42 16 59 -13 15 -51 20
-63 8z"/>
<path d="M1581 1526 c-7 -8 -10 -24 -6 -35 14 -45 79 -30 73 17 -2 21 -9 28
-29 30 -14 2 -31 -4 -38 -12z"/>
<path d="M1787 1533 c-26 -26 12 -80 47 -67 21 8 30 42 16 59 -13 15 -51 20
-63 8z"/>
<path d="M1176 1324 c-19 -19 -20 -25 -3 -48 19 -26 61 -18 65 12 7 44 -32 67
-62 36z"/>
<path d="M1380 1325 c-26 -32 13 -81 48 -59 34 22 22 74 -18 74 -10 0 -23 -7
-30 -15z"/>
<path d="M1578 1315 c-9 -21 -9 -29 4 -42 24 -23 68 -10 68 20 0 49 -52 64
-72 22z"/>
<path d="M1792 1328 c-22 -22 -14 -57 14 -64 38 -10 61 17 46 51 -12 27 -40
33 -60 13z"/>
<path d="M1170 1109 c-10 -18 -9 -25 8 -41 27 -28 65 -9 60 30 -4 36 -51 44
-68 11z"/>
<path d="M1377 1123 c-26 -26 12 -80 47 -67 21 8 30 42 16 59 -13 15 -51 20
-63 8z"/>
<path d="M1582 1118 c-17 -17 -15 -32 7 -52 16 -14 23 -15 41 -6 31 17 24 64
-10 68 -14 2 -31 -3 -38 -10z"/>
<path d="M1787 1124 c-15 -15 -6 -54 14 -65 18 -9 25 -7 43 10 16 17 18 25 10
39 -11 18 -55 28 -67 16z"/>
</g>
</svg>
